<svg width="512" height="512" viewBox="0 0 512 512" fill="none" xmlns="http://www.w3.org/2000/svg">
    <g clip-path="url(#clip0)">
        <path d="M508.688 97.7149C504.539 92.5586 497.496 90.7305 491.363 93.2188C490.387 93.6133 489.422 94 488.465 94.3789C492.32 87.7344 495.48 80.6797 497.977 73.1797C499.855 67.5235 498.211 61.293 493.785 57.3047C489.363 53.3125 482.996 52.3203 477.566 54.7735C477.496 54.8047 477.129 54.9766 476.504 55.2891C452.715 67.2227 434.164 74.2227 425.73 75.8672C425.141 75.3516 424.516 74.8008 423.977 74.3203C413.531 65.0625 391.797 46 347.863 46C323.949 46 289.727 55.3867 265.398 82.2891C246.207 103.52 236.645 131.32 236.867 165.121C166.566 156.512 108.918 124.855 61.0547 68.6914C57.7266 64.7852 52.6289 62.8555 47.543 63.5703C42.4609 64.2852 38.0977 67.5547 35.9766 72.2305C29.4961 86.5274 21.0195 108.566 22.1914 134.789C22.9649 151.996 27.75 168.277 36.4844 183.5C27.5469 183.047 20.1602 190.496 20.7539 199.473C23.2383 237.004 37.0156 266.059 61.8477 286.328C57.125 290.117 55.1445 296.371 56.8164 302.184C64.6289 329.293 87.4922 358.746 122.438 372.863C90.8555 388.793 54.7305 395.48 16.2305 392.309C9.30079 391.742 2.87501 396.016 0.730478 402.637C-1.41405 409.258 1.27735 416.484 7.23438 420.09C57.1133 450.289 111.191 465.598 167.965 465.598C290.223 465.598 361.148 404.879 399.117 353.945C445.961 291.102 462.582 217.391 462.582 173.363C462.582 167.594 462.41 166.422 462.586 164.793C468.418 159.648 484.516 151.867 509.371 115.598C513.117 110.141 512.836 102.871 508.688 97.7149V97.7149ZM432.535 168.605C432.559 169.645 432.586 171.035 432.586 173.363C432.586 212.801 417.52 279.059 375.066 336.016C341.199 381.445 277.781 435.602 167.969 435.602C136.113 435.602 105.172 430.242 75.4727 419.617C110.273 413.547 142.355 399.547 170.199 378.051C175.164 374.219 177.223 367.703 175.355 361.719C173.492 355.73 168.102 351.535 161.84 351.199C131.891 349.594 108.254 333.16 95.0899 313.672C100.25 313.34 106.395 312.527 115.543 310.918C122.359 309.719 127.469 304.012 127.91 297.102C128.352 290.195 124.012 283.883 117.402 281.824C83.0195 271.117 62.5781 251.586 54.4375 221.156C59.8125 222.535 66.2539 223.613 76.9141 224.949C83.5039 225.781 89.8516 222.172 92.5195 216.086C95.1836 210.004 93.5313 202.891 88.457 198.605C50.1836 166.297 48.1719 133.332 55.2188 106.73C107.934 160.344 172.813 191.246 251.762 196.664C261.051 197.301 268.641 189.41 267.711 180.195C264.359 146.926 271.066 120.758 287.652 102.414C305.414 82.7696 331.188 75.8008 347.863 75.8008C380.418 75.8008 394.656 88.418 404.078 96.7696C409.574 101.641 414.762 106.242 422.59 106.242C428.066 106.242 435.148 104.688 442.98 102.199C440.203 104.555 437.234 106.824 434.066 109.012C428.496 112.863 426.199 119.969 428.457 126.352C430.715 132.734 436.965 136.816 443.723 136.309C446.316 136.113 448.938 135.844 451.582 135.496C441.188 143.391 432.125 148.199 432.535 168.605V168.605Z"
              fill="#996E1C"/>
    </g>
    <defs>
        <clipPath id="clip0">
            <rect width="512" height="512" fill="white"/>
        </clipPath>
    </defs>
</svg>
